<svg width="177" height="224" viewBox="0 0 177 224" fill="none" xmlns="http://www.w3.org/2000/svg">
<path d="M174.38 205.92C172.81 207.347 170.737 208.091 168.618 207.99C166.499 207.889 164.507 206.95 163.08 205.38L160.82 202.9C160.112 208.719 157.298 214.078 152.91 217.965C148.521 221.852 142.862 223.999 137 224H41C34.6348 224 28.5303 221.471 24.0294 216.971C19.5286 212.47 17 206.365 17 200V44.69L3.08 29.38C2.35867 28.6051 1.7983 27.6948 1.43137 26.7018C1.06445 25.7088 0.898267 24.6528 0.942459 23.5951C0.986652 22.5373 1.24034 21.4989 1.68882 20.5399C2.1373 19.581 2.77165 18.7206 3.5551 18.0086C4.33855 17.2966 5.25553 16.7472 6.25289 16.3922C7.25024 16.0372 8.30813 15.8837 9.36525 15.9406C10.4224 15.9974 11.4577 16.2636 12.4112 16.7235C13.3647 17.1834 14.2174 17.8281 14.92 18.62L174.92 194.62C176.347 196.19 177.091 198.263 176.99 200.382C176.889 202.501 175.95 204.493 174.38 205.92ZM147.08 140.21C148.166 141.405 149.588 142.243 151.16 142.615C152.731 142.986 154.378 142.873 155.884 142.291C157.39 141.709 158.685 140.685 159.598 139.353C160.511 138.022 161 136.445 161 134.83V24C161 17.6348 158.471 11.5303 153.971 7.02944C149.47 2.52856 143.365 0 137 0H37.7C36.1504 0.000150496 34.6342 0.450353 33.3356 1.29591C32.037 2.14146 31.0119 3.34597 30.3849 4.76307C29.7579 6.18018 29.5559 7.74888 29.8036 9.27858C30.0513 10.8083 30.7379 12.2331 31.78 13.38L147.08 140.21Z" fill="black" style="fill:black;fill-opacity:1;"/>
</svg>
